<?xml version="1.0" standalone="no"?>
<!DOCTYPE svg PUBLIC "-//W3C//DTD SVG 20010904//EN"
 "http://www.w3.org/TR/2001/REC-SVG-20010904/DTD/svg10.dtd">
<svg version="1.0" xmlns="http://www.w3.org/2000/svg"
 width="184.000000pt" height="184.000000pt" viewBox="0 0 184.000000 184.000000"
 preserveAspectRatio="xMidYMid meet">
<metadata>
Created by potrace 1.11, written by Peter Selinger 2001-2013
</metadata>
<g transform="translate(0.000000,184.000000) scale(0.100000,-0.100000)"
fill="#000000" stroke="none">
<path d="M0 920 l0 -920 920 0 920 0 0 920 0 920 -920 0 -920 0 0 -920z m1015
831 c41 -18 96 -73 94 -94 0 -7 -5 -2 -11 9 -6 14 -19 22 -35 22 -24 0 -24 -1
-7 -11 10 -6 25 -19 32 -29 7 -10 17 -16 21 -14 4 3 8 0 8 -7 1 -7 6 -34 11
-60 8 -42 8 -47 -6 -42 -8 3 -19 0 -24 -7 -5 -9 -8 -6 -8 9 0 12 4 25 10 28
15 9 6 62 -15 85 -21 23 -41 26 -48 6 -5 -11 -14 -11 -59 2 -31 9 -98 15 -160
16 -60 1 -108 3 -108 6 0 3 14 22 31 43 54 66 173 83 274 38z m-163 -122 l-24
-9 29 -24 c15 -12 41 -30 57 -38 l28 -15 -33 1 c-19 1 -40 5 -46 9 -7 5 -13 4
-13 -1 0 -12 15 -25 63 -51 26 -15 37 -17 37 -8 0 8 11 24 25 37 13 12 22 27
19 31 -3 5 -1 9 5 9 22 0 -2 28 -32 39 l-32 11 30 -6 c17 -3 49 -14 73 -24 43
-19 43 -19 26 -45 -15 -23 -15 -40 1 -90 5 -18 1 -20 -37 -21 -70 -2 -74 -3
-99 -25 -15 -13 -18 -20 -9 -19 32 5 48 -1 74 -26 14 -15 26 -22 26 -15 0 6 8
11 18 11 16 1 16 1 -1 11 -24 14 -14 26 20 23 15 -1 35 -2 44 -3 22 -1 31 -28
18 -52 -9 -17 -17 -19 -47 -15 -39 6 -53 1 -119 -46 -51 -35 -105 -42 -138
-16 -14 11 -25 27 -25 36 0 30 -27 95 -44 108 -13 9 -14 13 -4 18 7 3 2 4 -11
3 -14 -1 -26 -8 -29 -16 -3 -9 0 -11 8 -6 9 5 11 4 6 -4 -4 -6 -11 -9 -16 -6
-5 3 -11 -4 -15 -15 -5 -14 -12 -19 -24 -15 -11 3 -24 -2 -32 -11 -11 -14 -11
-21 4 -48 l17 -31 -20 24 c-11 13 -20 31 -20 40 0 18 22 53 52 83 10 10 18 33
19 51 1 57 7 71 48 110 48 44 50 52 15 43 -17 -5 -23 -3 -19 4 3 5 38 10 78 9
55 0 67 -2 49 -10z m71 -6 c-7 -2 -19 -2 -25 0 -7 3 -2 5 12 5 14 0 19 -2 13
-5z m202 -161 c-3 -7 3 -25 12 -40 12 -21 9 -19 -15 8 -37 41 -44 78 -12 58
11 -7 18 -19 15 -26z m25 -131 c-6 -12 -16 -21 -22 -21 -6 0 -4 8 5 18 10 10
18 29 18 43 2 23 2 23 6 2 2 -12 -1 -31 -7 -42z m-435 -52 c-4 -5 -18 -9 -33
-9 l-27 0 25 14 c26 13 44 11 35 -5z m123 -49 c18 0 15 -8 -13 -38 -14 -15
-25 -30 -25 -34 0 -12 18 -19 24 -9 3 5 15 7 26 4 11 -3 27 2 36 11 15 16 15
18 -1 36 -10 11 -13 20 -8 20 6 0 16 -7 23 -15 20 -24 54 -17 89 19 43 44 64
41 71 -10 7 -47 52 -144 80 -169 11 -10 20 -21 20 -24 0 -4 -17 -25 -37 -46
-21 -22 -38 -42 -38 -45 0 -3 -4 -4 -8 -2 -5 1 -6 -2 -3 -7 11 -18 -15 -23
-33 -7 -10 9 -21 13 -25 9 -4 -4 -4 -1 -1 8 3 8 -10 45 -30 81 -39 74 -42 93
-20 102 8 3 15 10 15 16 0 17 -31 -4 -91 -61 -30 -29 -41 -44 -25 -33 l29 18
-6 -38 c-3 -21 -15 -45 -25 -54 -10 -10 -17 -22 -15 -28 2 -7 -4 -19 -13 -28
-9 -9 -14 -20 -10 -23 9 -10 47 39 42 54 -3 7 -1 13 4 13 6 0 10 -15 10 -34 0
-31 4 -36 35 -47 33 -12 73 -54 62 -65 -3 -3 -22 6 -42 21 -21 14 -50 25 -64
25 -25 -1 -25 -1 6 -15 38 -16 56 -47 51 -86 -3 -16 0 -29 5 -29 16 0 1 -11
-20 -15 -10 -2 -20 -4 -22 -4 -2 -1 2 -7 8 -15 6 -7 22 -11 36 -8 27 5 32 -7
13 -26 -21 -21 -43 -13 -55 18 -6 16 -19 33 -28 37 -21 7 -50 -9 -50 -28 0 -9
-10 -13 -28 -11 -24 2 -27 -1 -27 -28 0 -16 -2 -30 -4 -30 -2 0 -12 -3 -22 -7
-14 -5 -16 -3 -11 11 4 9 3 15 -2 12 -13 -8 -31 41 -31 84 0 31 5 43 24 55 13
9 31 36 41 60 9 25 24 49 33 54 13 7 14 13 3 39 -7 17 -10 35 -7 41 3 5 0 11
-6 13 -15 5 -18 221 -5 272 l8 29 23 -22 c12 -11 28 -21 34 -21z m172 -332 c0
-7 -4 -19 -9 -27 -6 -9 -8 -5 -8 13 0 14 3 26 8 26 5 0 9 -6 9 -12z m-603
-100 c-3 -8 -6 -5 -6 6 -1 11 2 17 5 13 3 -3 4 -12 1 -19z m-45 -162 c-16 -18
-17 -18 -20 5 -2 13 1 25 6 27 6 2 9 11 6 20 -3 9 1 6 10 -8 13 -22 13 -27 -2
-44z m448 9 c0 -2 -9 -9 -20 -15 -12 -6 -20 -7 -20 -1 0 5 8 12 18 14 9 3 18
5 20 6 1 0 2 -1 2 -4z m140 -15 c0 -5 -8 -10 -17 -10 -15 0 -16 2 -3 10 19 12
20 12 20 0z m-572 -20 c-7 -10 -14 -17 -17 -15 -4 4 18 35 25 35 2 0 -1 -9 -8
-20z m72 5 c0 -1 -11 -10 -24 -18 -22 -15 -23 -15 -21 6 1 12 3 23 4 24 2 2
41 -9 41 -12z m-20 -145 l35 -10 -39 5 c-22 2 -47 12 -55 21 -15 15 -14 15 4
5 11 -6 36 -15 55 -21z m197 -102 c-3 -7 -5 -2 -5 12 0 14 2 19 5 13 2 -7 2
-19 0 -25z m-8 -72 c-9 -8 -10 -7 -5 7 3 10 7 24 7 30 1 7 3 4 6 -7 3 -10 -1
-23 -8 -30z"/>
<path d="M1047 1709 c7 -7 15 -10 18 -7 3 3 -2 9 -12 12 -14 6 -15 5 -6 -5z"/>
<path d="M982 1527 c-12 -13 -22 -30 -22 -39 0 -9 -11 -19 -24 -22 -14 -3 -28
-15 -31 -27 -10 -30 -2 -31 26 -5 13 12 30 21 37 18 7 -2 24 3 38 12 19 13 24
24 22 51 -2 41 -16 44 -46 12z"/>
<path d="M748 1525 c-7 -9 -24 -27 -38 -40 -14 -14 -20 -25 -14 -25 6 0 19 9
29 20 24 26 32 25 85 -10 65 -43 68 -37 8 20 -29 28 -53 50 -55 50 -1 0 -8 -7
-15 -15z"/>
<path d="M805 1310 c14 -40 51 -53 71 -25 26 36 -3 65 -62 62 -20 -1 -21 -4
-9 -37z"/>
<path d="M994 1195 c24 -18 32 -19 39 -2 3 8 -6 13 -27 14 -29 2 -30 1 -12
-12z"/>
<path d="M905 1156 c-33 -14 -72 -52 -41 -40 9 3 16 10 16 16 0 5 5 6 10 3 8
-5 7 -12 -2 -23 -7 -10 1 -5 18 11 17 15 40 27 52 27 12 0 22 5 22 10 0 14
-39 12 -75 -4z"/>
<path d="M994 1057 c-6 -18 13 -67 26 -67 17 0 22 24 11 53 -11 29 -28 35 -37
14z"/>
<path d="M1102 994 c-7 -8 -8 -14 -3 -14 10 0 25 19 20 25 -2 1 -10 -3 -17
-11z"/>
<path d="M825 809 c-3 -4 5 -11 19 -15 39 -9 51 0 16 13 -16 6 -32 7 -35 2z"/>
<path d="M820 767 c0 -3 18 -14 40 -25 39 -19 53 -16 27 6 -14 12 -67 27 -67
19z"/>
<path d="M714 719 c-3 -6 -1 -16 5 -22 8 -8 11 -5 11 11 0 24 -5 28 -16 11z"/>
<path d="M720 669 c0 -5 5 -7 10 -4 6 3 10 8 10 11 0 2 -4 4 -10 4 -5 0 -10
-5 -10 -11z"/>
</g>
</svg>
